<?xml version="1.0" encoding="UTF-8" standalone="no"?>
<!-- Created with Inkscape (http://www.inkscape.org/) -->

<svg
   xmlns:dc="http://purl.org/dc/elements/1.1/"
   xmlns:cc="http://creativecommons.org/ns#"
   xmlns:rdf="http://www.w3.org/1999/02/22-rdf-syntax-ns#"
   xmlns:svg="http://www.w3.org/2000/svg"
   xmlns="http://www.w3.org/2000/svg"
   xmlns:sodipodi="http://sodipodi.sourceforge.net/DTD/sodipodi-0.dtd"
   xmlns:inkscape="http://www.inkscape.org/namespaces/inkscape"
   id="svg2"
   version="1.1"
   inkscape:version="0.92.2 (unknown)"
   width="3779.5273"
   height="1133.8582"
   xml:space="preserve"
   sodipodi:docname="logo-engrave.svg"><metadata
     id="metadata8"><rdf:RDF><cc:Work
         rdf:about=""><dc:format>image/svg+xml</dc:format><dc:type
           rdf:resource="http://purl.org/dc/dcmitype/StillImage" /><dc:title /></cc:Work></rdf:RDF></metadata><defs
     id="defs6"><clipPath
       clipPathUnits="userSpaceOnUse"
       id="clipPath16"><path
         d="M 0,841.89 H 595.276 V 0 H 0 Z"
         id="path18"
         inkscape:connector-curvature="0" /></clipPath></defs><sodipodi:namedview
     pagecolor="#ffffff"
     bordercolor="#666666"
     borderopacity="1"
     objecttolerance="10"
     gridtolerance="10"
     guidetolerance="10"
     inkscape:pageopacity="0"
     inkscape:pageshadow="2"
     inkscape:window-width="1600"
     inkscape:window-height="843"
     id="namedview4"
     showgrid="false"
     inkscape:zoom="6.2612417"
     inkscape:cx="88.764354"
     inkscape:cy="1109.2271"
     inkscape:window-x="0"
     inkscape:window-y="1200"
     inkscape:window-maximized="1"
     inkscape:current-layer="text845"
     inkscape:document-units="mm"
     units="mm"
     showguides="true"
     inkscape:guide-bbox="true"
     inkscape:snap-bbox="true"><sodipodi:guide
       position="15.008109,1102.5617"
       orientation="0,1"
       id="guide847"
       inkscape:locked="false" /><sodipodi:guide
       position="36.715209,1112.6094"
       orientation="1,0"
       id="guide849"
       inkscape:locked="false" /><sodipodi:guide
       position="113.27275,1117.0297"
       orientation="1,0"
       id="guide851"
       inkscape:locked="false" /></sodipodi:namedview><g
     id="g10"
     inkscape:groupmode="layer"
     inkscape:label="Logo2"
     transform="matrix(1.25,0,0,-1.25,0,1133.8582)"><g
       id="g4162"
       transform="matrix(0.92241791,0,0,0.92241791,139.44854,72.842036)"
       style="fill:#000000;fill-opacity:1"><g
         id="g4163"
         transform="matrix(0.6,0,0,0.6,-153.20822,875.47849)"><g
           style="fill:#000000;fill-opacity:1"
           id="g3253"><path
             inkscape:connector-curvature="0"
             id="path20"
             style="fill:#000000;fill-opacity:1;fill-rule:nonzero;stroke:none;stroke-width:1.06666672"
             d="m 25.932266,46.401557 17.122133,-10.075733 2.048,1.4144 c -4.020267,6.2912 -11.056,10.472533 -19.082667,10.48 -8.032,0.0032 -15.089066,-4.194133 -19.1093331,-10.5056 l 1.9722667,-1.217067 5.2640004,3.051734 3.698133,-2.088534 c -0.119467,-0.3712 -0.187733,-0.749866 -0.1888,-1.1424 -0.0032,-2.914133 3.460267,-5.275733 7.719467,-5.272533 4.266666,-0.0053 7.726933,2.3552 7.733333,5.264 0,2.910933 -3.460267,5.2736 -7.729067,5.277867 -0.946133,-0.0021 -1.857066,-0.125867 -2.6944,-0.3424 l -2.6912,1.704533 z" /><path
             inkscape:connector-curvature="0"
             id="path22"
             style="fill:#000000;fill-opacity:1;fill-rule:nonzero;stroke:none;stroke-width:1.06666672"
             d="m 25.037332,5.7284907 -4.625066,2.6037333 -0.1856,5.284267 c 0.2208,0.0768 0.436266,0.1696 0.648533,0.283733 2.5184,1.457067 2.833067,5.634133 0.704,9.332267 -2.1344,3.6928 -5.898667,5.5072 -8.421333,4.053333 -2.520534,-1.458133 -2.830934,-5.6288 -0.7168,-9.320533 0.394666,-0.666667 0.8288,-1.259734 1.301333,-1.7984 l -0.1696,-3.973334 -5.5584001,3.140267 0.094933,19.7824 -2.0117334,1.2096 c -1.7258666,-3.1904 -2.7104,-6.842667 -2.7125333,-10.7264 C 3.3807989,13.415957 13.011732,3.4756907 25.078932,2.981824 Z" /><path
             inkscape:connector-curvature="0"
             id="path24"
             style="fill:#000000;fill-opacity:1;fill-rule:nonzero;stroke:none;stroke-width:1.06666672"
             d="m 45.914132,36.366357 -2.3616,-1.661866 -0.0021,-5.858134 -3.809067,-2.267733 c -0.2496,0.274133 -0.5408,0.510933 -0.8704,0.7008 -2.5088,1.4528 -6.2976,-0.360533 -8.430933,-4.0544 -2.135467,-3.691733 -1.812267,-7.8688 0.6976,-9.328 2.526933,-1.457067 6.2976,0.360533 8.430933,4.055467 0.482134,0.832 0.827734,1.681066 1.063467,2.5216 l 2.914133,1.653333 v -6.816 l -16.893866,-9.6597333 0.0064,-2.672 c 12.1888,0.3392 21.976533,10.3221333 21.981866,22.5984003 0.0075,3.909333 -0.984533,7.5808 -2.7264,10.788266" /></g><g
           style="fill:#000000;fill-opacity:1"
           id="g3229"><g
             style="fill:#000000;fill-opacity:1"
             id="g3206"><path
               d="m 63.100266,32.438891 6.437333,-0.0021 v -3.741866 l -6.437333,0.0011 z m 0.0043,11.213866 8.109867,-0.0021 0.183467,-4.1184 -8.295467,0.0021 z M 61.1323,17.503424 l -4.676267,0.0021 0.0043,26.1472 h 4.679466 z"
               style="fill:#000000;fill-opacity:1;fill-rule:nonzero;stroke:none;stroke-width:1.06666672"
               id="path26"
               inkscape:connector-curvature="0" /><path
               d="m 81.779732,34.934891 1.873067,8.711466 0.968533,0.0011 5.7792,-26.1504 -4.6688,0.0011 -1.490133,5.605333 -5.416533,0.0021 0.856533,3.7472 h 3.908267 z m 0.186667,8.712533 -6.132267,-26.1472 -4.664533,0.0011 5.982933,26.1472 z"
               style="fill:#000000;fill-opacity:1;fill-rule:nonzero;stroke:none;stroke-width:1.06666672"
               id="path28"
               inkscape:connector-curvature="0" /><path
               d="m 98.739732,32.429291 2.989868,-0.0011 c 1.74293,0.136533 2.61653,0.948267 2.61653,2.430933 v 2.798934 c 0,1.2448 -0.81066,1.866666 -2.42666,1.866666 l -3.177604,0.0011 0.0021,4.1184 3.735474,-0.0011 c 4.35626,-0.0011 6.5376,-1.870933 6.53546,-5.6096 v -3.179733 c -0.002,-2.24 -1.12106,-3.6736 -3.36213,-4.301867 2.49493,-0.6208 3.7408,-2.053333 3.7408,-4.2912 l -10e-4,-3.1712 c -0.001,-3.733333 -2.18346,-5.595733 -6.54826,-5.595733 l -4.106674,0.0011 v 4.114133 l 3.176534,-0.0011 c 1.86667,0 2.80107,0.624 2.80107,1.861334 l 0.001,2.7936 c 0,1.470933 -0.99947,2.282666 -2.98667,2.4192 h -2.989871 z m -1.681066,-14.9344 -4.6752,0.0021 0.0043,26.148267 4.677334,-0.0011 z"
               style="fill:#000000;fill-opacity:1;fill-rule:nonzero;stroke:none;stroke-width:1.06666672"
               id="path30"
               inkscape:connector-curvature="0" /><path
               d="m 118.68853,21.604757 8.48,-0.0021 -0.18453,-4.114133 -8.29653,0.0021 z m -6.4672,-4.113066 0.006,26.148266 4.67734,-0.1824 -0.005,-25.966933 z"
               style="fill:#000000;fill-opacity:1;fill-rule:nonzero;stroke:none;stroke-width:1.06666672"
               id="path32"
               inkscape:connector-curvature="0" /><path
               d="m 139.67307,34.921024 1.8688,8.711467 h 0.96746 l 5.78667,-26.1504 -4.6688,0.0011 -1.49547,5.6064 h -5.41333 l 0.85867,3.749334 3.90293,-0.0011 z m 0.1856,8.712533 -6.1312,-26.1472 -4.67094,0.0021 5.98507,26.146133 z"
               style="fill:#000000;fill-opacity:1;fill-rule:nonzero;stroke:none;stroke-width:1.06666672"
               id="path34"
               inkscape:connector-curvature="0" /><path
               d="m 156.63093,32.415424 2.9888,-0.0021 c 1.74294,0.1376 2.61974,0.948266 2.6208,2.429866 l 0.001,2.801067 c 0,1.243733 -0.816,1.8656 -2.43307,1.8656 l -3.17653,0.0011 0.002,4.1184 3.73654,-0.0011 c 4.3584,-0.0011 6.53653,-1.869867 6.53546,-5.608533 v -3.178667 c -0.001,-2.242133 -1.12426,-3.675733 -3.36426,-4.304 2.49386,-0.619733 3.74186,-2.0512 3.73973,-4.2912 v -3.1712 c 0,-3.733333 -2.18133,-5.597867 -6.54827,-5.594667 l -4.10666,0.0011 10e-4,4.1152 3.17654,-0.0021 c 1.8688,0.0011 2.8,0.625066 2.8,1.861333 l 0.002,2.791467 c -0.002,1.472 -0.99627,2.2848 -2.9888,2.4192 l -2.98667,0.0021 z M 154.9488,17.482091 h -4.6784 l 0.006,26.149333 4.6784,-0.0021 z"
               style="fill:#000000;fill-opacity:1;fill-rule:nonzero;stroke:none;stroke-width:1.06666672"
               id="path36"
               inkscape:connector-curvature="0" /></g><g
             aria-label="Landkreis Fürth e.V."
             transform="matrix(1,0,0,-1,0.05771525,0.17314574)"
             style="font-style:normal;font-variant:normal;font-weight:bold;font-stretch:normal;font-size:11.5638113px;line-height:1.25;font-family:sans-serif;-inkscape-font-specification:'sans-serif Bold';opacity:1;fill:#000000;fill-opacity:1;fill-rule:evenodd;stroke:none;stroke-width:2.73160911;stroke-linecap:round;stroke-miterlimit:4;stroke-dasharray:none;stroke-dashoffset:0;stroke-opacity:1"
             id="text845"><path
               d="m 58.282617,-11.429939 v 6.9845425 h 4.03577 v 1.4454764 h -5.770342 v -8.4300189 z"
               style="font-style:normal;font-variant:normal;font-weight:bold;font-stretch:normal;font-family:FreeSans;-inkscape-font-specification:'FreeSans Bold';fill:#000000;stroke:none;stroke-width:2.73160911"
               id="path853"
               inkscape:connector-curvature="0" /><path
               d="m 65.141583,-2.7339525 q -0.855722,0 -1.376093,-0.5088077 -0.520372,-0.5203715 -0.520372,-1.3645297 0,-1.653625 1.838646,-1.9658479 l 0.647573,-0.1156381 q 0.02313,0 0.231277,-0.023128 0.208148,-0.034691 0.265967,-0.046255 0.05782,-0.023128 0.219713,-0.057819 0.173457,-0.034691 0.24284,-0.080947 0.06938,-0.046255 0.161893,-0.1156382 0.104074,-0.080947 0.138766,-0.1734571 0.03469,-0.1040743 0.03469,-0.2312762 0,-0.6244459 -0.936668,-0.6244459 -0.601319,0 -0.844159,0.185021 -0.24284,0.185021 -0.300659,0.6707011 h -1.561114 q 0.150329,-2.1624327 2.67124,-2.1624327 2.555602,0 2.555602,1.9195926 v 3.4691434 q 0,0.4278611 0.370042,0.7632116 v 0.1965848 h -1.757699 q -0.185021,-0.2312763 -0.185021,-0.6244458 -0.855722,0.8904134 -1.896465,0.8904134 z m 1.884901,-2.7753147 V -5.948692 q -0.219712,0.1040743 -0.682265,0.1965848 l -0.555062,0.1040743 q -0.508808,0.1040743 -0.716957,0.3006591 -0.208148,0.1965848 -0.208148,0.5550629 0,0.3469144 0.231276,0.555063 0.24284,0.1965848 0.647573,0.1965848 0.612882,0 0.948233,-0.3816058 0.33535,-0.3816058 0.33535,-1.0869983 z"
               style="font-style:normal;font-variant:normal;font-weight:bold;font-stretch:normal;font-family:FreeSans;-inkscape-font-specification:'FreeSans Bold';fill:#000000;stroke:none;stroke-width:2.73160911"
               id="path855"
               inkscape:connector-curvature="0" /><path
               d="m 70.084028,-9.2443782 h 1.618934 v 0.9019772 q 0.670701,-1.0060515 1.873337,-1.0060515 0.994488,0 1.537987,0.5666267 0.555063,0.5666268 0.555063,1.595806 v 4.1860997 h -1.618934 v -3.8507492 q 0,-1.1216897 -1.040743,-1.1216897 -0.589754,0 -0.948232,0.3353505 -0.358478,0.3353506 -0.358478,0.8904135 v 3.7466749 h -1.618934 z"
               style="font-style:normal;font-variant:normal;font-weight:bold;font-stretch:normal;font-family:FreeSans;-inkscape-font-specification:'FreeSans Bold';fill:#000000;stroke:none;stroke-width:2.73160911"
               id="path857"
               inkscape:connector-curvature="0" /><path
               d="m 79.511787,-2.7339525 q -1.156381,0 -1.896465,-0.9482325 -0.72852,-0.9482325 -0.72852,-2.3474537 0,-1.410785 0.751648,-2.3590175 0.751648,-0.9597963 1.873337,-0.9597963 1.133254,0 1.723008,0.9135411 v -2.9950276 h 1.618934 v 8.4300189 h -1.618934 v -0.6360097 q -0.601318,0.9019773 -1.723008,0.9019773 z m 0.358478,-5.2615341 q -0.601318,0 -0.982924,0.5550629 -0.381605,0.5434992 -0.381605,1.410785 0,0.855722 0.381605,1.3992212 0.381606,0.5434991 0.982924,0.5434991 0.601319,0 0.982924,-0.5319353 0.381606,-0.5319353 0.381606,-1.3876574 0,-0.8904134 -0.381606,-1.4339126 -0.370042,-0.5550629 -0.982924,-0.5550629 z"
               style="font-style:normal;font-variant:normal;font-weight:bold;font-stretch:normal;font-family:FreeSans;-inkscape-font-specification:'FreeSans Bold';fill:#000000;stroke:none;stroke-width:2.73160911"
               id="path859"
               inkscape:connector-curvature="0" /><path
               d="m 85.977042,-6.8159779 2.046794,-2.4284003 h 1.838646 l -2.127741,2.3590175 2.278071,3.8854406 h -1.896465 l -1.491732,-2.7521871 -0.647573,0.7053925 v 2.0467946 h -1.618934 v -8.4300189 h 1.618934 z"
               style="font-style:normal;font-variant:normal;font-weight:bold;font-stretch:normal;font-family:FreeSans;-inkscape-font-specification:'FreeSans Bold';fill:#000000;stroke:none;stroke-width:2.73160911"
               id="path861"
               inkscape:connector-curvature="0" /><path
               d="m 90.885338,-9.2443782 h 1.618933 v 1.225764 q 0.254404,-0.6360097 0.716956,-0.982924 0.462553,-0.3469143 1.017616,-0.3469143 0.104074,0 0.196585,0.011564 v 1.6420612 q -0.289096,-0.046255 -0.508808,-0.046255 -1.422349,0 -1.422349,1.4223488 v 3.3188139 h -1.618933 z"
               style="font-style:normal;font-variant:normal;font-weight:bold;font-stretch:normal;font-family:FreeSans;-inkscape-font-specification:'FreeSans Bold';fill:#000000;stroke:none;stroke-width:2.73160911"
               id="path863"
               inkscape:connector-curvature="0" /><path
               d="m 98.026895,-9.3484525 q 0.404733,0 0.786339,0.092511 0.381606,0.09251 0.774775,0.3353505 0.404734,0.24284 0.693831,0.6244458 0.30066,0.370042 0.48568,0.9944878 0.18502,0.612882 0.18502,1.4107849 0,0.1387658 -0.0116,0.2775315 h -4.186105 q 0.01156,0.3584782 0.05782,0.6244458 0.05782,0.2544039 0.185021,0.5088077 0.138765,0.2428401 0.393169,0.3816058 0.265968,0.1272019 0.659137,0.1272019 0.925105,0 1.237328,-0.7863391 h 1.59581 q -0.26597,0.9251049 -1.052311,1.4801678 -0.786339,0.5434991 -1.838646,0.5434991 -1.329838,0 -2.09305,-0.855722 -0.763211,-0.8672859 -0.763211,-2.3705813 0,-1.5726784 0.774775,-2.4746556 0.774776,-0.9135411 2.116178,-0.9135411 z m 1.237328,2.6596766 q -0.05782,-0.6822649 -0.381606,-1.0523069 -0.312223,-0.3700419 -0.87885,-0.3700419 -1.063871,0 -1.225764,1.4223488 z"
               style="font-style:normal;font-variant:normal;font-weight:bold;font-stretch:normal;font-family:FreeSans;-inkscape-font-specification:'FreeSans Bold';fill:#000000;stroke:none;stroke-width:2.73160911"
               id="path865"
               inkscape:connector-curvature="0" /><path
               d="m 103.85488,-9.2443782 v 6.2444581 h -1.61894 v -6.2444581 z m 0,-2.1855608 v 1.4454768 h -1.61894 v -1.4454768 z"
               style="font-style:normal;font-variant:normal;font-weight:bold;font-stretch:normal;font-family:FreeSans;-inkscape-font-specification:'FreeSans Bold';fill:#000000;stroke:none;stroke-width:2.73160911"
               id="path867"
               inkscape:connector-curvature="0" /><path
               d="m 106.58737,-4.8154385 q 0.0809,0.3931696 0.32379,0.6013182 0.2544,0.2081486 0.94823,0.2081486 0.56662,0 0.87885,-0.1618934 0.32378,-0.1618933 0.32378,-0.4509886 0,-0.185021 -0.1272,-0.3006591 -0.11564,-0.1156381 -0.4163,-0.2081486 l -1.93115,-0.6013182 q -0.0116,0 -0.13877,-0.034691 -0.1272,-0.046255 -0.18502,-0.069383 -0.0463,-0.023128 -0.18502,-0.069383 -0.13877,-0.057819 -0.21971,-0.1156381 -0.0694,-0.057819 -0.18502,-0.1387657 -0.11564,-0.092511 -0.18502,-0.1965848 -0.0578,-0.1040743 -0.12721,-0.2312762 -0.0694,-0.1387658 -0.10407,-0.3122229 -0.0347,-0.1734572 -0.0347,-0.370042 0,-0.9597963 0.68226,-1.5148593 0.69383,-0.5666267 1.8849,-0.5666267 1.26046,0 1.97742,0.5666267 0.71695,0.555063 0.74008,1.5495507 h -1.56111 q -0.0116,-0.8441582 -1.16795,-0.8441582 -0.42786,0 -0.68226,0.1618934 -0.25441,0.1503295 -0.25441,0.4162972 0,0.185021 0.11564,0.2890953 0.11564,0.09251 0.45099,0.1965847 l 2.04679,0.5897544 q 1.22577,0.3584782 1.22577,1.5726784 0,0.3584781 -0.1272,0.7053925 -0.12721,0.3353505 -0.4163,0.670701 -0.27753,0.3353505 -0.84416,0.5319353 -0.56663,0.2081486 -1.3414,0.2081486 -2.87939,0 -2.94877,-2.081486 z"
               style="font-style:normal;font-variant:normal;font-weight:bold;font-stretch:normal;font-family:FreeSans;-inkscape-font-specification:'FreeSans Bold';fill:#000000;stroke:none;stroke-width:2.73160911"
               id="path869"
               inkscape:connector-curvature="0" /><path
               d="m 117.2864,-6.6309569 v 3.6310368 h -1.73457 v -8.4300189 h 5.92067 v 1.4454768 h -4.1861 v 1.9080289 h 3.68886 v 1.4454764 z"
               style="font-style:normal;font-variant:normal;font-weight:bold;font-stretch:normal;font-family:FreeSans;-inkscape-font-specification:'FreeSans Bold';fill:#000000;stroke:none;stroke-width:2.73160911"
               id="path871"
               inkscape:connector-curvature="0" /><path
               d="m 126.83325,-11.591832 v 1.410785 h -1.27202 v -1.410785 z m -2.2665,0 v 1.410785 h -1.27202 v -1.410785 z m 3.38819,8.5919119 h -1.61893 v -0.740084 q -0.6707,1.0060516 -1.87334,1.0060516 -0.99449,0 -1.54955,-0.5666267 -0.5435,-0.5666268 -0.5435,-1.595806 v -4.347993 h 1.61893 v 4.0126425 q 0,1.1216897 1.04075,1.1216897 0.58975,0 0.94823,-0.3353505 0.35848,-0.3353506 0.35848,-0.8904135 v -3.9085682 h 1.61893 z"
               style="font-style:normal;font-variant:normal;font-weight:bold;font-stretch:normal;font-family:FreeSans;-inkscape-font-specification:'FreeSans Bold';fill:#000000;stroke:none;stroke-width:2.73160911"
               id="path873"
               inkscape:connector-curvature="0" /><path
               d="m 129.46149,-9.2443782 h 1.61893 v 1.225764 q 0.2544,-0.6360097 0.71696,-0.982924 0.46255,-0.3469143 1.01761,-0.3469143 0.10408,0 0.19659,0.011564 v 1.6420612 q -0.2891,-0.046255 -0.50881,-0.046255 -1.42235,0 -1.42235,1.4223488 v 3.3188139 h -1.61893 z"
               style="font-style:normal;font-variant:normal;font-weight:bold;font-stretch:normal;font-family:FreeSans;-inkscape-font-specification:'FreeSans Bold';fill:#000000;stroke:none;stroke-width:2.73160911"
               id="path875"
               inkscape:connector-curvature="0" /><path
               d="m 136.97444,-9.1171763 v 1.0754344 h -0.90198 v 3.3997606 q 0,0.4162972 0.10407,0.5550629 0.10408,0.1272019 0.42786,0.1272019 0.12721,0 0.37005,-0.034691 v 1.1332535 q -0.39317,0.1272019 -0.93667,0.1272019 -1.58424,0 -1.58424,-1.468604 v -3.8391854 h -0.79791 v -1.0754344 h 0.79791 v -1.6767531 h 1.61893 v 1.6767531 z"
               style="font-style:normal;font-variant:normal;font-weight:bold;font-stretch:normal;font-family:FreeSans;-inkscape-font-specification:'FreeSans Bold';fill:#000000;stroke:none;stroke-width:2.73160911"
               id="path877"
               inkscape:connector-curvature="0" /><path
               d="m 141.93405,-6.8159779 q 0,-1.1563811 -0.99449,-1.1563811 -0.5435,0 -0.90198,0.3469143 -0.34691,0.3469144 -0.34691,0.8788497 v 3.7466749 h -1.61894 v -8.4300189 h 1.61894 v 3.087538 q 0.6707,-1.0060515 1.82708,-1.0060515 0.37004,0 0.69383,0.1040743 0.33535,0.09251 0.64757,0.3237867 0.32379,0.2197124 0.50881,0.670701 0.18502,0.4509887 0.18502,1.0638707 v 4.1860997 h -1.61893 z"
               style="font-style:normal;font-variant:normal;font-weight:bold;font-stretch:normal;font-family:FreeSans;-inkscape-font-specification:'FreeSans Bold';fill:#000000;stroke:none;stroke-width:2.73160911"
               id="path879"
               inkscape:connector-curvature="0" /><path
               d="m 150.69644,-9.3484525 q 0.40473,0 0.78634,0.092511 0.3816,0.09251 0.77477,0.3353505 0.40474,0.24284 0.69383,0.6244458 0.30066,0.370042 0.48568,0.9944878 0.18502,0.612882 0.18502,1.4107849 0,0.1387658 -0.0116,0.2775315 h -4.1861 q 0.0116,0.3584782 0.0578,0.6244458 0.0578,0.2544039 0.18502,0.5088077 0.13877,0.2428401 0.39317,0.3816058 0.26597,0.1272019 0.65914,0.1272019 0.9251,0 1.23732,-0.7863391 h 1.59581 q -0.26597,0.9251049 -1.05231,1.4801678 -0.78634,0.5434991 -1.83864,0.5434991 -1.32984,0 -2.09305,-0.855722 -0.76321,-0.8672859 -0.76321,-2.3705813 0,-1.5726784 0.77477,-2.4746556 0.77478,-0.9135411 2.11618,-0.9135411 z m 1.23733,2.6596766 q -0.0578,-0.6822649 -0.38161,-1.0523069 -0.31222,-0.3700419 -0.87885,-0.3700419 -1.06387,0 -1.22576,1.4223488 z"
               style="font-style:normal;font-variant:normal;font-weight:bold;font-stretch:normal;font-family:FreeSans;-inkscape-font-specification:'FreeSans Bold';fill:#000000;stroke:none;stroke-width:2.73160911"
               id="path881"
               inkscape:connector-curvature="0" /><path
               d="m 156.40879,-4.6882366 v 1.6883165 h -1.73458 v -1.6883165 z"
               style="font-style:normal;font-variant:normal;font-weight:bold;font-stretch:normal;font-family:FreeSans;-inkscape-font-specification:'FreeSans Bold';fill:#000000;stroke:none;stroke-width:2.73160911"
               id="path883"
               inkscape:connector-curvature="0" /><path
               d="m 161.53155,-2.9999201 h -1.4686 l -2.8447,-8.4300189 h 1.74614 l 1.87334,6.3485328 1.83864,-6.3485328 h 1.74614 z"
               style="font-style:normal;font-variant:normal;font-weight:bold;font-stretch:normal;font-family:FreeSans;-inkscape-font-specification:'FreeSans Bold';fill:#000000;stroke:none;stroke-width:2.73160911"
               id="path885"
               inkscape:connector-curvature="0" /><path
               d="m 166.95625,-4.6882366 v 1.6883165 h -1.73457 v -1.6883165 z"
               style="font-style:normal;font-variant:normal;font-weight:bold;font-stretch:normal;font-family:FreeSans;-inkscape-font-specification:'FreeSans Bold';fill:#000000;stroke:none;stroke-width:2.73160911"
               id="path887"
               inkscape:connector-curvature="0" /></g></g></g></g></g></svg>